<svg id="visual" viewBox="0 0 900 600" width="900" height="600" xmlns="http://www.w3.org/2000/svg" xmlns:xlink="http://www.w3.org/1999/xlink" version="1.1"><path d="M0 296L12.5 294.5C25 293 50 290 75 295.3C100 300.7 125 314.3 150 316.2C175 318 200 308 225 306.7C250 305.3 275 312.7 300 308.2C325 303.7 350 287.3 375 285.3C400 283.3 425 295.7 450 303.8C475 312 500 316 525 312.5C550 309 575 298 600 291.8C625 285.7 650 284.3 675 286.7C700 289 725 295 750 301.7C775 308.3 800 315.7 825 317.8C850 320 875 317 887.5 315.5L900 314L900 601L887.5 601C875 601 850 601 825 601C800 601 775 601 750 601C725 601 700 601 675 601C650 601 625 601 600 601C575 601 550 601 525 601C500 601 475 601 450 601C425 601 400 601 375 601C350 601 325 601 300 601C275 601 250 601 225 601C200 601 175 601 150 601C125 601 100 601 75 601C50 601 25 601 12.5 601L0 601Z" fill="#242424" stroke-linecap="round" stroke-linejoin="miter"></path></svg>